<mxfile modified="2021-09-06T17:58:55.130Z" host="app.diagrams.net" agent="5.0 (Windows NT 10.0; Win64; x64) AppleWebKit/537.36 (KHTML, like Gecko) Chrome/92.0.4515.159 Safari/537.36" etag="w9y8Gx8N2dIZjbAt5dnO" version="15.0.6" type="github">
  <diagram id="Ht1M8jgEwFfnCIfOTk4-" name="Page-1">
    <mxGraphModel dx="782" dy="446" grid="1" gridSize="10" guides="1" tooltips="1" connect="1" arrows="1" fold="1" page="1" pageScale="1" pageWidth="1169" pageHeight="827" math="0" shadow="0">
      <root>
        <mxCell id="0" />
        <mxCell id="1" parent="0" />
        <mxCell id="VMMx5AYhZp33PYTCg9Fu-41" style="edgeStyle=elbowEdgeStyle;rounded=0;jumpStyle=arc;orthogonalLoop=1;jettySize=auto;html=1;entryX=0;entryY=0.5;entryDx=0;entryDy=0;entryPerimeter=0;startArrow=none;startFill=0;" edge="1" parent="1" source="VMMx5AYhZp33PYTCg9Fu-1" target="VMMx5AYhZp33PYTCg9Fu-40">
          <mxGeometry relative="1" as="geometry" />
        </mxCell>
        <mxCell id="VMMx5AYhZp33PYTCg9Fu-45" style="edgeStyle=elbowEdgeStyle;rounded=0;jumpStyle=arc;orthogonalLoop=1;jettySize=auto;html=1;exitX=1;exitY=0.25;exitDx=0;exitDy=0;exitPerimeter=0;entryX=0;entryY=0.5;entryDx=0;entryDy=0;entryPerimeter=0;startArrow=none;startFill=0;" edge="1" parent="1" source="VMMx5AYhZp33PYTCg9Fu-1" target="VMMx5AYhZp33PYTCg9Fu-39">
          <mxGeometry relative="1" as="geometry" />
        </mxCell>
        <mxCell id="VMMx5AYhZp33PYTCg9Fu-1" value="" style="points=[[0,0,0],[0.25,0,0],[0.5,0,0],[0.75,0,0],[1,0,0],[0,1,0],[0.25,1,0],[0.5,1,0],[0.75,1,0],[1,1,0],[0,0.25,0],[0,0.5,0],[0,0.75,0],[1,0.25,0],[1,0.5,0],[1,0.75,0]];outlineConnect=0;fontColor=#232F3E;gradientColor=#4D72F3;gradientDirection=north;fillColor=#3334B9;strokeColor=#ffffff;dashed=0;verticalLabelPosition=bottom;verticalAlign=top;align=center;html=1;fontSize=12;fontStyle=0;aspect=fixed;shape=mxgraph.aws4.resourceIcon;resIcon=mxgraph.aws4.database;" vertex="1" parent="1">
          <mxGeometry x="391" y="280" width="78" height="78" as="geometry" />
        </mxCell>
        <mxCell id="VMMx5AYhZp33PYTCg9Fu-2" value="Source Layer" style="text;html=1;strokeColor=none;fillColor=none;align=center;verticalAlign=middle;whiteSpace=wrap;rounded=0;fontStyle=1" vertex="1" parent="1">
          <mxGeometry x="110" y="90" width="120" height="20" as="geometry" />
        </mxCell>
        <mxCell id="VMMx5AYhZp33PYTCg9Fu-4" value="Storage Layer" style="text;html=1;strokeColor=none;fillColor=none;align=center;verticalAlign=middle;whiteSpace=wrap;rounded=0;fontStyle=1" vertex="1" parent="1">
          <mxGeometry x="550" y="90" width="120" height="20" as="geometry" />
        </mxCell>
        <mxCell id="VMMx5AYhZp33PYTCg9Fu-5" value="Access Layer" style="text;html=1;strokeColor=none;fillColor=none;align=center;verticalAlign=middle;whiteSpace=wrap;rounded=0;fontStyle=1" vertex="1" parent="1">
          <mxGeometry x="920" y="90" width="120" height="20" as="geometry" />
        </mxCell>
        <mxCell id="VMMx5AYhZp33PYTCg9Fu-14" style="edgeStyle=orthogonalEdgeStyle;rounded=0;orthogonalLoop=1;jettySize=auto;html=1;entryX=0;entryY=0.25;entryDx=0;entryDy=0;entryPerimeter=0;" edge="1" parent="1" source="VMMx5AYhZp33PYTCg9Fu-8" target="VMMx5AYhZp33PYTCg9Fu-11">
          <mxGeometry relative="1" as="geometry" />
        </mxCell>
        <mxCell id="VMMx5AYhZp33PYTCg9Fu-35" style="edgeStyle=elbowEdgeStyle;rounded=0;jumpStyle=arc;orthogonalLoop=1;jettySize=auto;html=1;entryX=0;entryY=0.75;entryDx=0;entryDy=0;entryPerimeter=0;startArrow=none;startFill=0;" edge="1" parent="1" source="VMMx5AYhZp33PYTCg9Fu-8" target="VMMx5AYhZp33PYTCg9Fu-24">
          <mxGeometry relative="1" as="geometry">
            <Array as="points">
              <mxPoint x="10" y="380" />
            </Array>
          </mxGeometry>
        </mxCell>
        <mxCell id="VMMx5AYhZp33PYTCg9Fu-8" value="" style="outlineConnect=0;fontColor=#232F3E;gradientColor=none;fillColor=#6CAE3E;strokeColor=none;dashed=0;verticalLabelPosition=bottom;verticalAlign=top;align=center;html=1;fontSize=12;fontStyle=0;aspect=fixed;pointerEvents=1;shape=mxgraph.aws4.house;" vertex="1" parent="1">
          <mxGeometry x="40" y="160" width="78" height="78" as="geometry" />
        </mxCell>
        <mxCell id="VMMx5AYhZp33PYTCg9Fu-15" style="edgeStyle=orthogonalEdgeStyle;rounded=0;orthogonalLoop=1;jettySize=auto;html=1;entryX=0;entryY=0.5;entryDx=0;entryDy=0;entryPerimeter=0;" edge="1" parent="1" source="VMMx5AYhZp33PYTCg9Fu-9" target="VMMx5AYhZp33PYTCg9Fu-11">
          <mxGeometry relative="1" as="geometry" />
        </mxCell>
        <mxCell id="VMMx5AYhZp33PYTCg9Fu-36" style="edgeStyle=elbowEdgeStyle;rounded=0;jumpStyle=arc;orthogonalLoop=1;jettySize=auto;html=1;entryX=0;entryY=0.5;entryDx=0;entryDy=0;entryPerimeter=0;startArrow=none;startFill=0;" edge="1" parent="1" source="VMMx5AYhZp33PYTCg9Fu-9" target="VMMx5AYhZp33PYTCg9Fu-24">
          <mxGeometry relative="1" as="geometry">
            <Array as="points">
              <mxPoint x="20" y="430" />
            </Array>
          </mxGeometry>
        </mxCell>
        <mxCell id="VMMx5AYhZp33PYTCg9Fu-9" value="" style="outlineConnect=0;fontColor=#232F3E;gradientColor=none;fillColor=#6CAE3E;strokeColor=none;dashed=0;verticalLabelPosition=bottom;verticalAlign=top;align=center;html=1;fontSize=12;fontStyle=0;aspect=fixed;pointerEvents=1;shape=mxgraph.aws4.house;" vertex="1" parent="1">
          <mxGeometry x="40" y="280" width="78" height="78" as="geometry" />
        </mxCell>
        <mxCell id="VMMx5AYhZp33PYTCg9Fu-16" style="edgeStyle=orthogonalEdgeStyle;rounded=0;orthogonalLoop=1;jettySize=auto;html=1;entryX=0;entryY=0.75;entryDx=0;entryDy=0;entryPerimeter=0;jumpStyle=arc;" edge="1" parent="1" source="VMMx5AYhZp33PYTCg9Fu-10" target="VMMx5AYhZp33PYTCg9Fu-11">
          <mxGeometry relative="1" as="geometry" />
        </mxCell>
        <mxCell id="VMMx5AYhZp33PYTCg9Fu-37" style="edgeStyle=elbowEdgeStyle;rounded=0;jumpStyle=arc;orthogonalLoop=1;jettySize=auto;html=1;entryX=0;entryY=0.25;entryDx=0;entryDy=0;entryPerimeter=0;startArrow=none;startFill=0;" edge="1" parent="1" source="VMMx5AYhZp33PYTCg9Fu-10" target="VMMx5AYhZp33PYTCg9Fu-24">
          <mxGeometry relative="1" as="geometry">
            <Array as="points">
              <mxPoint x="30" y="450" />
            </Array>
          </mxGeometry>
        </mxCell>
        <mxCell id="VMMx5AYhZp33PYTCg9Fu-10" value="" style="outlineConnect=0;fontColor=#232F3E;gradientColor=none;fillColor=#6CAE3E;strokeColor=none;dashed=0;verticalLabelPosition=bottom;verticalAlign=top;align=center;html=1;fontSize=12;fontStyle=0;aspect=fixed;pointerEvents=1;shape=mxgraph.aws4.house;" vertex="1" parent="1">
          <mxGeometry x="40" y="400" width="78" height="78" as="geometry" />
        </mxCell>
        <mxCell id="VMMx5AYhZp33PYTCg9Fu-22" style="edgeStyle=orthogonalEdgeStyle;rounded=0;orthogonalLoop=1;jettySize=auto;html=1;startArrow=none;startFill=0;" edge="1" parent="1" source="VMMx5AYhZp33PYTCg9Fu-11" target="VMMx5AYhZp33PYTCg9Fu-1">
          <mxGeometry relative="1" as="geometry" />
        </mxCell>
        <mxCell id="VMMx5AYhZp33PYTCg9Fu-11" value="" style="points=[[0,0,0],[0.25,0,0],[0.5,0,0],[0.75,0,0],[1,0,0],[0,1,0],[0.25,1,0],[0.5,1,0],[0.75,1,0],[1,1,0],[0,0.25,0],[0,0.5,0],[0,0.75,0],[1,0.25,0],[1,0.5,0],[1,0.75,0]];outlineConnect=0;fontColor=#232F3E;gradientColor=#60A337;gradientDirection=north;fillColor=#277116;strokeColor=#ffffff;dashed=0;verticalLabelPosition=bottom;verticalAlign=top;align=center;html=1;fontSize=12;fontStyle=0;aspect=fixed;shape=mxgraph.aws4.resourceIcon;resIcon=mxgraph.aws4.iot_sitewise;" vertex="1" parent="1">
          <mxGeometry x="230" y="280" width="78" height="78" as="geometry" />
        </mxCell>
        <mxCell id="VMMx5AYhZp33PYTCg9Fu-12" value="Сервис сбора&lt;br&gt;показаний со счетчиков" style="text;html=1;strokeColor=none;fillColor=none;align=center;verticalAlign=middle;whiteSpace=wrap;rounded=0;fontStyle=0" vertex="1" parent="1">
          <mxGeometry x="188.5" y="250" width="161" height="20" as="geometry" />
        </mxCell>
        <mxCell id="VMMx5AYhZp33PYTCg9Fu-17" value="Поселок" style="text;html=1;strokeColor=none;fillColor=none;align=center;verticalAlign=middle;whiteSpace=wrap;rounded=0;fontStyle=0" vertex="1" parent="1">
          <mxGeometry x="38.5" y="130" width="81" height="20" as="geometry" />
        </mxCell>
        <mxCell id="VMMx5AYhZp33PYTCg9Fu-20" value="OLTP" style="text;html=1;strokeColor=none;fillColor=none;align=center;verticalAlign=middle;whiteSpace=wrap;rounded=0;fontStyle=0" vertex="1" parent="1">
          <mxGeometry x="349.5" y="250" width="161" height="20" as="geometry" />
        </mxCell>
        <mxCell id="VMMx5AYhZp33PYTCg9Fu-28" style="edgeStyle=orthogonalEdgeStyle;rounded=0;orthogonalLoop=1;jettySize=auto;html=1;entryX=0;entryY=0.5;entryDx=0;entryDy=0;entryPerimeter=0;startArrow=none;startFill=0;" edge="1" parent="1" source="VMMx5AYhZp33PYTCg9Fu-24" target="VMMx5AYhZp33PYTCg9Fu-27">
          <mxGeometry relative="1" as="geometry" />
        </mxCell>
        <mxCell id="VMMx5AYhZp33PYTCg9Fu-24" value="" style="points=[[0,0,0],[0.25,0,0],[0.5,0,0],[0.75,0,0],[1,0,0],[0,1,0],[0.25,1,0],[0.5,1,0],[0.75,1,0],[1,1,0],[0,0.25,0],[0,0.5,0],[0,0.75,0],[1,0.25,0],[1,0.5,0],[1,0.75,0]];outlineConnect=0;fontColor=#232F3E;gradientColor=#60A337;gradientDirection=north;fillColor=#277116;strokeColor=#ffffff;dashed=0;verticalLabelPosition=bottom;verticalAlign=top;align=center;html=1;fontSize=12;fontStyle=0;aspect=fixed;shape=mxgraph.aws4.resourceIcon;resIcon=mxgraph.aws4.iot_events;" vertex="1" parent="1">
          <mxGeometry x="230" y="499" width="78" height="78" as="geometry" />
        </mxCell>
        <mxCell id="VMMx5AYhZp33PYTCg9Fu-25" value="Сервис приема&lt;br&gt;документов" style="text;html=1;strokeColor=none;fillColor=none;align=center;verticalAlign=middle;whiteSpace=wrap;rounded=0;fontStyle=0" vertex="1" parent="1">
          <mxGeometry x="188.5" y="470" width="161" height="20" as="geometry" />
        </mxCell>
        <mxCell id="VMMx5AYhZp33PYTCg9Fu-62" style="edgeStyle=elbowEdgeStyle;rounded=0;jumpStyle=arc;orthogonalLoop=1;jettySize=auto;html=1;entryX=0;entryY=0.75;entryDx=0;entryDy=0;entryPerimeter=0;startArrow=none;startFill=0;" edge="1" parent="1" source="VMMx5AYhZp33PYTCg9Fu-27" target="VMMx5AYhZp33PYTCg9Fu-58">
          <mxGeometry relative="1" as="geometry" />
        </mxCell>
        <mxCell id="VMMx5AYhZp33PYTCg9Fu-27" value="" style="points=[[0,0,0],[0.25,0,0],[0.5,0,0],[0.75,0,0],[1,0,0],[0,1,0],[0.25,1,0],[0.5,1,0],[0.75,1,0],[1,1,0],[0,0.25,0],[0,0.5,0],[0,0.75,0],[1,0.25,0],[1,0.5,0],[1,0.75,0]];outlineConnect=0;fontColor=#232F3E;gradientColor=#4D72F3;gradientDirection=north;fillColor=#3334B9;strokeColor=#ffffff;dashed=0;verticalLabelPosition=bottom;verticalAlign=top;align=center;html=1;fontSize=12;fontStyle=0;aspect=fixed;shape=mxgraph.aws4.resourceIcon;resIcon=mxgraph.aws4.managed_apache_cassandra_service;" vertex="1" parent="1">
          <mxGeometry x="600" y="499" width="78" height="78" as="geometry" />
        </mxCell>
        <mxCell id="VMMx5AYhZp33PYTCg9Fu-38" value="Cassandra" style="text;html=1;strokeColor=none;fillColor=none;align=center;verticalAlign=middle;whiteSpace=wrap;rounded=0;fontStyle=0" vertex="1" parent="1">
          <mxGeometry x="558.5" y="470" width="161" height="20" as="geometry" />
        </mxCell>
        <mxCell id="VMMx5AYhZp33PYTCg9Fu-49" style="edgeStyle=elbowEdgeStyle;rounded=0;jumpStyle=arc;orthogonalLoop=1;jettySize=auto;html=1;entryX=0;entryY=0.25;entryDx=0;entryDy=0;entryPerimeter=0;startArrow=none;startFill=0;" edge="1" parent="1" source="VMMx5AYhZp33PYTCg9Fu-39" target="VMMx5AYhZp33PYTCg9Fu-46">
          <mxGeometry relative="1" as="geometry" />
        </mxCell>
        <mxCell id="VMMx5AYhZp33PYTCg9Fu-39" value="" style="points=[[0,0,0],[0.25,0,0],[0.5,0,0],[0.75,0,0],[1,0,0],[0,1,0],[0.25,1,0],[0.5,1,0],[0.75,1,0],[1,1,0],[0,0.25,0],[0,0.5,0],[0,0.75,0],[1,0.25,0],[1,0.5,0],[1,0.75,0]];outlineConnect=0;fontColor=#232F3E;gradientColor=#4D72F3;gradientDirection=north;fillColor=#3334B9;strokeColor=#ffffff;dashed=0;verticalLabelPosition=bottom;verticalAlign=top;align=center;html=1;fontSize=12;fontStyle=0;aspect=fixed;shape=mxgraph.aws4.resourceIcon;resIcon=mxgraph.aws4.rds_on_vmware;" vertex="1" parent="1">
          <mxGeometry x="600" y="160" width="78" height="78" as="geometry" />
        </mxCell>
        <mxCell id="VMMx5AYhZp33PYTCg9Fu-43" style="edgeStyle=elbowEdgeStyle;rounded=0;jumpStyle=arc;orthogonalLoop=1;jettySize=auto;html=1;startArrow=classicThin;startFill=1;exitX=1;exitY=0.25;exitDx=0;exitDy=0;exitPerimeter=0;entryX=1;entryY=0.75;entryDx=0;entryDy=0;entryPerimeter=0;" edge="1" parent="1" source="VMMx5AYhZp33PYTCg9Fu-40" target="VMMx5AYhZp33PYTCg9Fu-39">
          <mxGeometry relative="1" as="geometry">
            <mxPoint x="680" y="300" as="sourcePoint" />
            <mxPoint x="680" y="200" as="targetPoint" />
            <Array as="points">
              <mxPoint x="700" y="270" />
            </Array>
          </mxGeometry>
        </mxCell>
        <mxCell id="VMMx5AYhZp33PYTCg9Fu-48" style="edgeStyle=elbowEdgeStyle;rounded=0;jumpStyle=arc;orthogonalLoop=1;jettySize=auto;html=1;entryX=0;entryY=0.75;entryDx=0;entryDy=0;entryPerimeter=0;startArrow=none;startFill=0;" edge="1" parent="1" source="VMMx5AYhZp33PYTCg9Fu-40" target="VMMx5AYhZp33PYTCg9Fu-46">
          <mxGeometry relative="1" as="geometry" />
        </mxCell>
        <mxCell id="VMMx5AYhZp33PYTCg9Fu-40" value="" style="points=[[0,0,0],[0.25,0,0],[0.5,0,0],[0.75,0,0],[1,0,0],[0,1,0],[0.25,1,0],[0.5,1,0],[0.75,1,0],[1,1,0],[0,0.25,0],[0,0.5,0],[0,0.75,0],[1,0.25,0],[1,0.5,0],[1,0.75,0]];outlineConnect=0;fontColor=#232F3E;gradientColor=#4D72F3;gradientDirection=north;fillColor=#3334B9;strokeColor=#ffffff;dashed=0;verticalLabelPosition=bottom;verticalAlign=top;align=center;html=1;fontSize=12;fontStyle=0;aspect=fixed;shape=mxgraph.aws4.resourceIcon;resIcon=mxgraph.aws4.neptune;" vertex="1" parent="1">
          <mxGeometry x="600" y="280" width="78" height="78" as="geometry" />
        </mxCell>
        <mxCell id="VMMx5AYhZp33PYTCg9Fu-42" value="Greenplum" style="text;html=1;strokeColor=none;fillColor=none;align=center;verticalAlign=middle;whiteSpace=wrap;rounded=0;fontStyle=0" vertex="1" parent="1">
          <mxGeometry x="558.5" y="250" width="161" height="20" as="geometry" />
        </mxCell>
        <mxCell id="VMMx5AYhZp33PYTCg9Fu-44" value="Hadoop" style="text;html=1;strokeColor=none;fillColor=none;align=center;verticalAlign=middle;whiteSpace=wrap;rounded=0;fontStyle=0" vertex="1" parent="1">
          <mxGeometry x="558.5" y="130" width="161" height="20" as="geometry" />
        </mxCell>
        <mxCell id="VMMx5AYhZp33PYTCg9Fu-56" value="" style="edgeStyle=elbowEdgeStyle;rounded=0;jumpStyle=arc;orthogonalLoop=1;jettySize=auto;html=1;startArrow=none;startFill=0;exitX=1;exitY=0.25;exitDx=0;exitDy=0;exitPerimeter=0;" edge="1" parent="1" source="VMMx5AYhZp33PYTCg9Fu-46" target="VMMx5AYhZp33PYTCg9Fu-54">
          <mxGeometry relative="1" as="geometry" />
        </mxCell>
        <mxCell id="VMMx5AYhZp33PYTCg9Fu-61" style="edgeStyle=elbowEdgeStyle;rounded=0;jumpStyle=arc;orthogonalLoop=1;jettySize=auto;html=1;entryX=0;entryY=0.25;entryDx=0;entryDy=0;entryPerimeter=0;startArrow=none;startFill=0;" edge="1" parent="1" source="VMMx5AYhZp33PYTCg9Fu-46" target="VMMx5AYhZp33PYTCg9Fu-58">
          <mxGeometry relative="1" as="geometry" />
        </mxCell>
        <mxCell id="VMMx5AYhZp33PYTCg9Fu-46" value="" style="points=[[0,0,0],[0.25,0,0],[0.5,0,0],[0.75,0,0],[1,0,0],[0,1,0],[0.25,1,0],[0.5,1,0],[0.75,1,0],[1,1,0],[0,0.25,0],[0,0.5,0],[0,0.75,0],[1,0.25,0],[1,0.5,0],[1,0.75,0]];outlineConnect=0;fontColor=#232F3E;gradientColor=#4D72F3;gradientDirection=north;fillColor=#3334B9;strokeColor=#ffffff;dashed=0;verticalLabelPosition=bottom;verticalAlign=top;align=center;html=1;fontSize=12;fontStyle=0;aspect=fixed;shape=mxgraph.aws4.resourceIcon;resIcon=mxgraph.aws4.database_migration_service;" vertex="1" parent="1">
          <mxGeometry x="760" y="221" width="78" height="78" as="geometry" />
        </mxCell>
        <mxCell id="VMMx5AYhZp33PYTCg9Fu-47" value="ClickHouse" style="text;html=1;strokeColor=none;fillColor=none;align=center;verticalAlign=middle;whiteSpace=wrap;rounded=0;fontStyle=0" vertex="1" parent="1">
          <mxGeometry x="718.5" y="189" width="161" height="20" as="geometry" />
        </mxCell>
        <mxCell id="VMMx5AYhZp33PYTCg9Fu-50" value="" style="endArrow=none;dashed=1;html=1;" edge="1" parent="1">
          <mxGeometry width="50" height="50" relative="1" as="geometry">
            <mxPoint x="520" y="602" as="sourcePoint" />
            <mxPoint x="520" y="80" as="targetPoint" />
          </mxGeometry>
        </mxCell>
        <mxCell id="VMMx5AYhZp33PYTCg9Fu-51" value="Жители" style="outlineConnect=0;gradientColor=none;fontColor=#545B64;strokeColor=none;fillColor=#879196;dashed=0;verticalLabelPosition=bottom;verticalAlign=top;align=center;html=1;fontSize=12;fontStyle=0;aspect=fixed;shape=mxgraph.aws4.illustration_users;pointerEvents=1" vertex="1" parent="1">
          <mxGeometry x="1070" y="157" width="62" height="62" as="geometry" />
        </mxCell>
        <mxCell id="VMMx5AYhZp33PYTCg9Fu-57" value="" style="edgeStyle=elbowEdgeStyle;rounded=0;jumpStyle=arc;orthogonalLoop=1;jettySize=auto;html=1;startArrow=none;startFill=0;" edge="1" parent="1" source="VMMx5AYhZp33PYTCg9Fu-54" target="VMMx5AYhZp33PYTCg9Fu-51">
          <mxGeometry relative="1" as="geometry" />
        </mxCell>
        <mxCell id="VMMx5AYhZp33PYTCg9Fu-54" value="" style="points=[[0,0,0],[0.25,0,0],[0.5,0,0],[0.75,0,0],[1,0,0],[0,1,0],[0.25,1,0],[0.5,1,0],[0.75,1,0],[1,1,0],[0,0.25,0],[0,0.5,0],[0,0.75,0],[1,0.25,0],[1,0.5,0],[1,0.75,0]];outlineConnect=0;fontColor=#232F3E;gradientColor=#FF4F8B;gradientDirection=north;fillColor=#BC1356;strokeColor=#ffffff;dashed=0;verticalLabelPosition=bottom;verticalAlign=top;align=center;html=1;fontSize=12;fontStyle=0;aspect=fixed;shape=mxgraph.aws4.resourceIcon;resIcon=mxgraph.aws4.application_integration;" vertex="1" parent="1">
          <mxGeometry x="941" y="150" width="78" height="78" as="geometry" />
        </mxCell>
        <mxCell id="VMMx5AYhZp33PYTCg9Fu-55" value="Web отчеты" style="text;html=1;strokeColor=none;fillColor=none;align=center;verticalAlign=middle;whiteSpace=wrap;rounded=0;fontStyle=0" vertex="1" parent="1">
          <mxGeometry x="899.5" y="127" width="161" height="20" as="geometry" />
        </mxCell>
        <mxCell id="VMMx5AYhZp33PYTCg9Fu-60" value="" style="edgeStyle=elbowEdgeStyle;rounded=0;jumpStyle=arc;orthogonalLoop=1;jettySize=auto;html=1;startArrow=none;startFill=0;" edge="1" parent="1" source="VMMx5AYhZp33PYTCg9Fu-58" target="VMMx5AYhZp33PYTCg9Fu-59">
          <mxGeometry relative="1" as="geometry" />
        </mxCell>
        <mxCell id="VMMx5AYhZp33PYTCg9Fu-58" value="" style="points=[[0,0,0],[0.25,0,0],[0.5,0,0],[0.75,0,0],[1,0,0],[0,1,0],[0.25,1,0],[0.5,1,0],[0.75,1,0],[1,1,0],[0,0.25,0],[0,0.5,0],[0,0.75,0],[1,0.25,0],[1,0.5,0],[1,0.75,0]];outlineConnect=0;fontColor=#232F3E;gradientColor=#FF4F8B;gradientDirection=north;fillColor=#BC1356;strokeColor=#ffffff;dashed=0;verticalLabelPosition=bottom;verticalAlign=top;align=center;html=1;fontSize=12;fontStyle=0;aspect=fixed;shape=mxgraph.aws4.resourceIcon;resIcon=mxgraph.aws4.appflow;" vertex="1" parent="1">
          <mxGeometry x="941" y="336" width="78" height="78" as="geometry" />
        </mxCell>
        <mxCell id="VMMx5AYhZp33PYTCg9Fu-59" value="Управляющая&lt;br&gt;компания" style="outlineConnect=0;gradientColor=none;fontColor=#545B64;strokeColor=none;fillColor=#879196;dashed=0;verticalLabelPosition=bottom;verticalAlign=top;align=center;html=1;fontSize=12;fontStyle=0;aspect=fixed;shape=mxgraph.aws4.illustration_users;pointerEvents=1" vertex="1" parent="1">
          <mxGeometry x="1070" y="344" width="62" height="62" as="geometry" />
        </mxCell>
        <mxCell id="VMMx5AYhZp33PYTCg9Fu-63" value="CRM" style="text;html=1;strokeColor=none;fillColor=none;align=center;verticalAlign=middle;whiteSpace=wrap;rounded=0;fontStyle=0" vertex="1" parent="1">
          <mxGeometry x="899.5" y="309" width="161" height="20" as="geometry" />
        </mxCell>
      </root>
    </mxGraphModel>
  </diagram>
</mxfile>
